<svg xmlns="http://www.w3.org/2000/svg" viewBox="0 0 64 64" role="img" aria-label="Diworkin">
  <defs>
    <linearGradient id="g" x1="10" y1="10" x2="54" y2="54" gradientUnits="userSpaceOnUse">
      <stop offset="0" stop-color="#A9C88A"/>
      <stop offset="0.55" stop-color="#4F8F6C"/>
      <stop offset="1" stop-color="#1F3D2E"/>
    </linearGradient>
  </defs>
  <rect width="64" height="64" rx="16" fill="#FAF6F0"/>
  <path d="M24 14h13.5c10.6 0 18.5 7.8 18.5 18s-7.9 18-18.5 18H24V14z" fill="url(#g)"/>
  <path d="M24 14l-10 10v26h10V14z" fill="#A9C88A" opacity=".92"/>
  <path d="M24 14h12.5c5.3 0 9.5 4.1 9.5 9.4 0 5.2-4.2 9.3-9.5 9.3H24v-18.7z" fill="#1F3D2E" opacity=".1"/>
  <path d="M24 34l-10 16h10l12.5-16H24z" fill="#8B6A3D" opacity=".22"/>
  <path d="M23.5 25H32c4.4 0 7.8 3.2 7.8 7s-3.4 7-7.8 7h-8.5V25z" fill="#FAF6F0"/>
</svg>
