<svg width="1200" height="630" viewBox="0 0 1200 630" fill="none" xmlns="http://www.w3.org/2000/svg" role="img" aria-label="Diworkin hosting and branding platform">
  <defs>
    <linearGradient id="bg" x1="0" y1="0" x2="1200" y2="630" gradientUnits="userSpaceOnUse">
      <stop offset="0" stop-color="#F7FBF8"/>
      <stop offset="0.45" stop-color="#EDF6EE"/>
      <stop offset="1" stop-color="#DCE9DE"/>
    </linearGradient>
    <linearGradient id="panel" x1="140" y1="130" x2="980" y2="510" gradientUnits="userSpaceOnUse">
      <stop offset="0" stop-color="#1F3D2E"/>
      <stop offset="0.5" stop-color="#2F5D50"/>
      <stop offset="1" stop-color="#4F8F6C"/>
    </linearGradient>
    <radialGradient id="glow" cx="0" cy="0" r="1" gradientUnits="userSpaceOnUse" gradientTransform="translate(875 140) rotate(96) scale(270 250)">
      <stop stop-color="#CFE8D5" stop-opacity="0.88"/>
      <stop offset="0.55" stop-color="#A9C88A" stop-opacity="0.34"/>
      <stop offset="1" stop-color="#A9C88A" stop-opacity="0"/>
    </radialGradient>
    <filter id="shadow" x="-20" y="-20" width="1240" height="670" filterUnits="userSpaceOnUse">
      <feDropShadow dx="0" dy="28" stdDeviation="32" flood-color="#1F3D2E" flood-opacity="0.16"/>
    </filter>
  </defs>

  <rect width="1200" height="630" rx="44" fill="url(#bg)"/>
  <circle cx="970" cy="110" r="210" fill="url(#glow)"/>
  <circle cx="220" cy="530" r="220" fill="#CFE8D5" fill-opacity="0.22"/>
  <circle cx="1040" cy="540" r="190" fill="#A9C88A" fill-opacity="0.14"/>

  <g filter="url(#shadow)">
    <rect x="60" y="64" width="1080" height="502" rx="34" fill="white" fill-opacity="0.84"/>
    <rect x="60" y="64" width="1080" height="502" rx="34" stroke="#D9E7DC" stroke-width="2"/>
  </g>

  <g transform="translate(98 122)">
    <rect x="0" y="0" width="78" height="78" rx="22" fill="url(#panel)"/>
    <path d="M18 56.5V18.5L40.7 23.8C52.8 26.6 60.5 36 60.5 48.1C60.5 60.8 51.8 71.2 39.1 73.2L18 56.5Z" fill="#DCE9DE" fill-opacity="0.9"/>
    <path d="M18 56.5L40.7 23.8L44.5 36.5L31 60L18 56.5Z" fill="#A9C88A"/>
    <path d="M31 60L44.5 36.5L60.5 48.1C60.5 60.8 51.8 71.2 39.1 73.2L31 60Z" fill="#4F8F6C" fill-opacity="0.9"/>
  </g>

  <text x="198" y="154" fill="#1F3D2E" font-family="Inter, ui-sans-serif, system-ui, -apple-system, BlinkMacSystemFont, 'Segoe UI', sans-serif" font-size="62" font-weight="800" letter-spacing="-0.04em">
    Diworkin
  </text>
  <text x="198" y="196" fill="#8B6A3D" font-family="Inter, ui-sans-serif, system-ui, -apple-system, BlinkMacSystemFont, 'Segoe UI', sans-serif" font-size="22" font-weight="600" letter-spacing="0.12em">
    HOSTING + BRANDING + DIGITAL PRODUCTS
  </text>

  <g transform="translate(98 252)">
    <text x="0" y="0" fill="#1F2B24" font-family="Inter, ui-sans-serif, system-ui, -apple-system, BlinkMacSystemFont, 'Segoe UI', sans-serif" font-size="54" font-weight="800" letter-spacing="-0.05em">
      Launch hosting, branding,
    </text>
    <text x="0" y="72" fill="#1F2B24" font-family="Inter, ui-sans-serif, system-ui, -apple-system, BlinkMacSystemFont, 'Segoe UI', sans-serif" font-size="54" font-weight="800" letter-spacing="-0.05em">
      and digital products.
    </text>
    <text x="0" y="126" fill="#64706A" font-family="Inter, ui-sans-serif, system-ui, -apple-system, BlinkMacSystemFont, 'Segoe UI', sans-serif" font-size="22" font-weight="500">
      One stack for websites, email, SSL, backups, and launch tools.
    </text>
  </g>

  <g transform="translate(736 154)">
    <rect width="360" height="270" rx="28" fill="#FFFFFF" fill-opacity="0.78" stroke="#D9E7DC" stroke-width="2"/>
    <rect x="20" y="20" width="320" height="48" rx="16" fill="#F4FAF5"/>
    <rect x="20" y="84" width="148" height="72" rx="18" fill="#F8FBF8"/>
    <rect x="180" y="84" width="160" height="72" rx="18" fill="#F8FBF8"/>
    <rect x="20" y="168" width="320" height="82" rx="18" fill="#F8FBF8"/>
    <circle cx="52" cy="44" r="16" fill="#1F3D2E"/>
    <rect x="82" y="34" width="150" height="20" rx="10" fill="#1F3D2E" fill-opacity="0.14"/>
    <rect x="82" y="58" width="94" height="10" rx="5" fill="#1F3D2E" fill-opacity="0.10"/>
    <rect x="38" y="102" width="80" height="18" rx="9" fill="#CFE8D5"/>
    <rect x="38" y="128" width="108" height="10" rx="5" fill="#1F3D2E" fill-opacity="0.18"/>
    <rect x="198" y="102" width="120" height="18" rx="9" fill="#A9C88A"/>
    <rect x="198" y="128" width="94" height="10" rx="5" fill="#1F3D2E" fill-opacity="0.18"/>
    <rect x="38" y="188" width="292" height="18" rx="9" fill="#DCE9DE"/>
    <rect x="38" y="214" width="230" height="10" rx="5" fill="#1F3D2E" fill-opacity="0.16"/>
  </g>

  <g transform="translate(80 492)">
    <rect width="170" height="42" rx="21" fill="#1F3D2E"/>
    <text x="26" y="27" fill="#FFFFFF" font-family="Inter, ui-sans-serif, system-ui, -apple-system, BlinkMacSystemFont, 'Segoe UI', sans-serif" font-size="18" font-weight="700">
      panel.diworkin.com
    </text>
  </g>
  <g transform="translate(260 492)">
    <rect width="188" height="42" rx="21" fill="#FFFFFF" fill-opacity="0.88" stroke="#D9E7DC" stroke-width="2"/>
    <text x="26" y="27" fill="#1F2B24" font-family="Inter, ui-sans-serif, system-ui, -apple-system, BlinkMacSystemFont, 'Segoe UI', sans-serif" font-size="18" font-weight="700">
      1-click install
    </text>
  </g>
  <g transform="translate(460 492)">
    <rect width="176" height="42" rx="21" fill="#FFFFFF" fill-opacity="0.88" stroke="#D9E7DC" stroke-width="2"/>
    <text x="26" y="27" fill="#1F2B24" font-family="Inter, ui-sans-serif, system-ui, -apple-system, BlinkMacSystemFont, 'Segoe UI', sans-serif" font-size="18" font-weight="700">
      Branding ready
    </text>
  </g>
</svg>
